<?xml version="1.0" encoding="UTF-8" standalone="no"?>
<svg
   xmlns:dc="http://purl.org/dc/elements/1.1/"
   xmlns:cc="http://creativecommons.org/ns#"
   xmlns:rdf="http://www.w3.org/1999/02/22-rdf-syntax-ns#"
   xmlns:svg="http://www.w3.org/2000/svg"
   xmlns="http://www.w3.org/2000/svg"
   id="svg8"
   version="1.1"
   viewBox="0 0 44.979164 45.24416"
   height="45.24416mm"
   width="44.979164mm">
  <defs
     id="defs2" />
  <metadata
     id="metadata5">
    <rdf:RDF>
      <cc:Work
         rdf:about="">
        <dc:format>image/svg+xml</dc:format>
        <dc:type
           rdf:resource="http://purl.org/dc/dcmitype/StillImage" />
        <dc:title></dc:title>
      </cc:Work>
    </rdf:RDF>
  </metadata>
  <g
     transform="translate(-89.391365,-129.45683)"
     id="layer1">
    <path
       id="path92"
       d="m 89.391365,152.07871 v -22.62188 l 1.256771,0.002 c 2.242706,0.003 6.293443,0.74931 9.232191,1.70144 5.232603,1.69533 9.271033,4.11926 13.317363,7.99331 5.01766,4.80403 8.20507,10.39857 9.83537,17.26299 0.49906,2.10133 1.04463,6.90736 0.78411,6.90736 -0.33087,0 -3.26395,-1.78976 -4.66018,-2.84364 -1.5875,-1.19825 -1.5875,-1.19825 -2.16024,-3.53081 -1.83477,-7.47237 -7.28846,-14.37439 -14.37622,-18.19413 -1.69663,-0.91436 -6.422033,-2.68353 -7.167608,-2.68353 -0.142378,0 -0.240723,7.89083 -0.240723,19.31459 v 19.31458 h -2.910417 -2.910417 z m 39.673285,22.21774 c -1.24474,-0.19408 -3.56646,-0.77513 -5.15937,-1.29121 -5.25708,-1.70322 -9.28856,-4.121 -13.34107,-8.00098 -5.01766,-4.80403 -8.20507,-10.39856 -9.83537,-17.26298 -0.49906,-2.10133 -1.044635,-6.90737 -0.784108,-6.90737 0.330868,0 3.263948,1.78977 4.660178,2.84365 1.5875,1.19825 1.5875,1.19825 2.16024,3.53081 1.83477,7.47234 7.28846,14.37436 14.37622,18.1941 1.69663,0.91436 6.42203,2.68353 7.16761,2.68353 0.14237,0 0.24072,-7.89083 0.24072,-19.31459 v -19.31458 h 2.91042 2.91041 v 22.62188 22.62187 l -1.52135,-0.0256 c -0.83675,-0.0141 -2.53978,-0.18442 -3.78453,-0.3785 z"
       style="fill:#000000;stroke-width:0.264583" />
  </g>
</svg>
